<svg xmlns="http://www.w3.org/2000/svg" width="50" height="43" viewBox="0 0 50 43" fill="none">
<path d="M14.6586 37.8494C21.4848 36.1161 28.7015 36.1161 35.5277 37.8494V37.8503C36.5905 38.1192 37.2461 39.2143 36.976 40.3015V40.3025C36.7493 41.2253 35.937 41.8337 35.0502 41.8337C34.892 41.8337 34.7293 41.8134 34.5687 41.7722H34.5677C28.3677 40.2049 21.8186 40.2049 15.6185 41.7722C14.5589 42.0383 13.4764 41.3888 13.2113 40.3035L13.2103 40.3015L13.1703 40.0974C13.0237 39.0806 13.6624 38.1024 14.6586 37.8503V37.8494ZM8.51892 2.09058C10.7994 0.948933 13.4485 0.863482 15.7904 1.84644L33.6488 9.34351L33.8451 9.42651L34.0404 9.34155C34.0976 9.31681 34.1593 9.29341 34.2299 9.26636L34.2318 9.26538C39.0092 7.42068 43.9384 7.451 47.4242 9.2478C48.5114 9.81104 49.2006 10.8259 49.3158 12.0017L49.3314 12.239C49.3803 13.8044 48.4153 15.4358 46.7211 16.4519C35.7673 23.0084 24.246 28.7839 12.4701 33.6169L8.53064 35.2332H8.52869C8.28751 35.3328 8.03677 35.3796 7.7865 35.3796C7.10082 35.3796 6.44209 35.0175 6.07654 34.3894L6.0072 34.2605L5.9447 34.1326L5.91833 34.0769L5.8783 34.0291L1.36267 28.6423C0.496121 27.6071 0.152963 26.2495 0.424194 24.9148C0.695332 23.5787 1.54131 22.4712 2.74353 21.8708L2.74451 21.8699L4.49646 20.991C7.46544 19.503 10.8629 19.5829 13.7094 21.1238L14.0043 21.2839L14.264 21.071L15.1879 20.3152C15.9242 19.7125 16.7124 19.1022 17.5638 18.4763L18.1 18.0818L17.5717 17.6765L6.62341 9.2771C5.62975 8.51497 5.07663 7.33544 5.11462 6.08179L5.13025 5.83081C5.25771 4.48565 6.04287 3.33275 7.23279 2.73608L8.51892 2.09058Z" fill="#9EBC8A" stroke="#18230F"/>
</svg>