<svg xmlns="http://www.w3.org/2000/svg" width="50" height="51" viewBox="0 0 50 51" fill="none">
<g clip-path="url(#clip0_2303_218)">
<path d="M14.6586 41.8494C21.4848 40.1161 28.7015 40.1161 35.5277 41.8494V41.8503C36.5905 42.1192 37.2461 43.2143 36.976 44.3015V44.3025C36.7493 45.2253 35.937 45.8337 35.0502 45.8337C34.892 45.8337 34.7293 45.8134 34.5687 45.7722H34.5677C28.3677 44.2049 21.8186 44.2049 15.6185 45.7722C14.5589 46.0383 13.4764 45.3888 13.2113 44.3035L13.2103 44.3015L13.1703 44.0974C13.0237 43.0806 13.6624 42.1024 14.6586 41.8503V41.8494ZM8.51892 6.09058C10.7994 4.94893 13.4485 4.86348 15.7904 5.84644L33.6488 13.3435L33.8451 13.4265L34.0404 13.3416C34.0976 13.3168 34.1593 13.2934 34.2299 13.2664L34.2318 13.2654C39.0092 11.4207 43.9384 11.451 47.4242 13.2478C48.5114 13.811 49.2006 14.8259 49.3158 16.0017L49.3314 16.239C49.3803 17.8044 48.4153 19.4358 46.7211 20.4519C35.7673 27.0084 24.246 32.7839 12.4701 37.6169L8.53064 39.2332H8.52869C8.28751 39.3328 8.03677 39.3796 7.7865 39.3796C7.10082 39.3796 6.44209 39.0175 6.07654 38.3894L6.0072 38.2605L5.9447 38.1326L5.91833 38.0769L5.8783 38.0291L1.36267 32.6423C0.496121 31.6071 0.152963 30.2495 0.424194 28.9148C0.695332 27.5787 1.54131 26.4712 2.74353 25.8708L2.74451 25.8699L4.49646 24.991C7.46544 23.503 10.8629 23.5829 13.7094 25.1238L14.0043 25.2839L14.264 25.071L15.1879 24.3152C15.9242 23.7125 16.7124 23.1022 17.5638 22.4763L18.1 22.0818L17.5717 21.6765L6.62341 13.2771C5.62975 12.515 5.07663 11.3354 5.11462 10.0818L5.13025 9.83081C5.25771 8.48565 6.04287 7.33275 7.23279 6.73608L8.51892 6.09058Z" stroke="#18230F"/>
</g>
<defs>
<clipPath id="clip0_2303_218">
<rect width="50" height="50" fill="white" transform="translate(0 0.5)"/>
</clipPath>
</defs>
</svg>