<svg xmlns="http://www.w3.org/2000/svg" width="50" height="51" viewBox="0 0 50 51" fill="none">
<g clip-path="url(#clip0_2134_380)">
<path d="M7.66345 15.2151H8.61072V46.8704H7.66345C5.00924 46.8704 2.849 44.71 2.849 42.0559V20.0295C2.849 17.3754 5.00932 15.2151 7.66345 15.2151ZM42.0043 15.2151C44.6582 15.2152 46.8177 17.3754 46.8177 20.0295V42.0559C46.8177 44.71 44.6582 46.8703 42.0043 46.8704H41.056V15.2151H42.0043ZM38.6058 15.2151V46.8704H36.6517V15.2151H38.6058ZM34.2015 15.2151V46.8704H15.4662V15.2151H34.2015ZM13.015 15.2151V46.8704H11.0609V15.2151H13.015ZM21.4779 4.13013H28.1898C31.5039 4.13013 34.2013 6.82711 34.2015 10.1418V12.7649H32.5375V10.1418C32.5373 7.74449 30.5871 5.79517 28.1898 5.79517H21.4779C19.0805 5.79517 17.1305 7.7446 17.1302 10.1418V12.7649H15.4662V10.1418C15.4664 6.82702 18.1639 4.13013 21.4779 4.13013Z" stroke="#18230F"/>
</g>
<defs>
<clipPath id="clip0_2134_380">
<rect width="50" height="50" fill="white" transform="translate(0 0.5)"/>
</clipPath>
</defs>
</svg>